<svg width="240" height="240" viewBox="0 0 240 240" xmlns="http://www.w3.org/2000/svg">
  <defs>
    <radialGradient id="starGlow" cx="50%" cy="50%" r="50%">
      <stop offset="0%" stop-color="#ffffff" stop-opacity="0.9" />
      <stop offset="55%" stop-color="#dbeafe" stop-opacity="0.45" />
      <stop offset="100%" stop-color="#93c5fd" stop-opacity="0" />
    </radialGradient>
    <linearGradient id="diamond" x1="0%" y1="0%" x2="0%" y2="100%">
      <stop offset="0%" stop-color="#fef9c3" stop-opacity="0.85" />
      <stop offset="100%" stop-color="#fde68a" stop-opacity="0.2" />
    </linearGradient>
  </defs>

  <rect width="240" height="240" fill="none" />

  <g opacity="0.55">
    <circle cx="32" cy="28" r="22" fill="url(#starGlow)" />
    <circle cx="180" cy="46" r="18" fill="url(#starGlow)" />
    <circle cx="212" cy="180" r="16" fill="url(#starGlow)" />
    <circle cx="56" cy="192" r="18" fill="url(#starGlow)" />
    <circle cx="124" cy="112" r="26" fill="url(#starGlow)" />
  </g>

  <g fill="url(#diamond)" opacity="0.9">
    <path d="M72 12 L80 24 L72 36 L64 24 Z" />
    <path d="M204 92 L212 104 L204 116 L196 104 Z" />
    <path d="M36 132 L44 144 L36 156 L28 144 Z" />
    <path d="M140 188 L148 200 L140 212 L132 200 Z" />
    <path d="M96 60 L104 72 L96 84 L88 72 Z" />
  </g>

  <g stroke="#facc15" stroke-width="1.5" stroke-linecap="round" opacity="0.55">
    <path d="M24 88h12" />
    <path d="M198 156h12" />
    <path d="M150 28h10" />
    <path d="M86 206h10" />
  </g>
</svg>
